<mxfile host="Electron" modified="2023-09-04T09:39:22.754Z" agent="Mozilla/5.0 (Windows NT 10.0; Win64; x64) AppleWebKit/537.36 (KHTML, like Gecko) draw.io/21.6.8 Chrome/114.0.5735.289 Electron/25.5.0 Safari/537.36" etag="_6B1IyZJvNXwhTGAdqj2" version="21.6.8" type="device">
  <diagram id="C5RBs43oDa-KdzZeNtuy" name="Page-1">
    <mxGraphModel dx="1098" dy="988" grid="1" gridSize="10" guides="1" tooltips="1" connect="1" arrows="1" fold="1" page="1" pageScale="1" pageWidth="827" pageHeight="1169" math="0" shadow="0">
      <root>
        <mxCell id="WIyWlLk6GJQsqaUBKTNV-0" />
        <mxCell id="WIyWlLk6GJQsqaUBKTNV-1" parent="WIyWlLk6GJQsqaUBKTNV-0" />
        <mxCell id="2AfaZkjUK9fXsdGyi5bM-4" value="" style="edgeStyle=orthogonalEdgeStyle;rounded=0;orthogonalLoop=1;jettySize=auto;html=1;" parent="WIyWlLk6GJQsqaUBKTNV-1" source="2AfaZkjUK9fXsdGyi5bM-0" target="2AfaZkjUK9fXsdGyi5bM-3" edge="1">
          <mxGeometry relative="1" as="geometry" />
        </mxCell>
        <mxCell id="XnbwVwA2hrqAzMLSGBaI-1" value="" style="edgeStyle=orthogonalEdgeStyle;rounded=0;orthogonalLoop=1;jettySize=auto;html=1;" edge="1" parent="WIyWlLk6GJQsqaUBKTNV-1" source="2AfaZkjUK9fXsdGyi5bM-0" target="XnbwVwA2hrqAzMLSGBaI-0">
          <mxGeometry relative="1" as="geometry" />
        </mxCell>
        <mxCell id="XnbwVwA2hrqAzMLSGBaI-3" value="" style="edgeStyle=orthogonalEdgeStyle;rounded=0;orthogonalLoop=1;jettySize=auto;html=1;" edge="1" parent="WIyWlLk6GJQsqaUBKTNV-1" source="2AfaZkjUK9fXsdGyi5bM-0" target="XnbwVwA2hrqAzMLSGBaI-2">
          <mxGeometry relative="1" as="geometry" />
        </mxCell>
        <mxCell id="XnbwVwA2hrqAzMLSGBaI-6" value="" style="edgeStyle=orthogonalEdgeStyle;rounded=0;orthogonalLoop=1;jettySize=auto;html=1;" edge="1" parent="WIyWlLk6GJQsqaUBKTNV-1" source="2AfaZkjUK9fXsdGyi5bM-0" target="XnbwVwA2hrqAzMLSGBaI-5">
          <mxGeometry relative="1" as="geometry" />
        </mxCell>
        <mxCell id="XnbwVwA2hrqAzMLSGBaI-11" style="edgeStyle=orthogonalEdgeStyle;rounded=0;orthogonalLoop=1;jettySize=auto;html=1;exitX=0;exitY=0;exitDx=0;exitDy=0;" edge="1" parent="WIyWlLk6GJQsqaUBKTNV-1" source="2AfaZkjUK9fXsdGyi5bM-0" target="XnbwVwA2hrqAzMLSGBaI-12">
          <mxGeometry relative="1" as="geometry">
            <mxPoint x="230" y="80" as="targetPoint" />
          </mxGeometry>
        </mxCell>
        <mxCell id="2AfaZkjUK9fXsdGyi5bM-0" value="PROCEROR" style="whiteSpace=wrap;html=1;aspect=fixed;" parent="WIyWlLk6GJQsqaUBKTNV-1" vertex="1">
          <mxGeometry x="360" y="200" width="100" height="100" as="geometry" />
        </mxCell>
        <mxCell id="2AfaZkjUK9fXsdGyi5bM-3" value="KAMERA" style="whiteSpace=wrap;html=1;aspect=fixed;" parent="WIyWlLk6GJQsqaUBKTNV-1" vertex="1">
          <mxGeometry x="360" y="20" width="100" height="100" as="geometry" />
        </mxCell>
        <mxCell id="XnbwVwA2hrqAzMLSGBaI-10" value="" style="edgeStyle=orthogonalEdgeStyle;rounded=0;orthogonalLoop=1;jettySize=auto;html=1;" edge="1" parent="WIyWlLk6GJQsqaUBKTNV-1" source="XnbwVwA2hrqAzMLSGBaI-0" target="XnbwVwA2hrqAzMLSGBaI-9">
          <mxGeometry relative="1" as="geometry" />
        </mxCell>
        <mxCell id="XnbwVwA2hrqAzMLSGBaI-0" value="Akumulator" style="whiteSpace=wrap;html=1;aspect=fixed;" vertex="1" parent="WIyWlLk6GJQsqaUBKTNV-1">
          <mxGeometry x="360" y="380" width="100" height="100" as="geometry" />
        </mxCell>
        <mxCell id="XnbwVwA2hrqAzMLSGBaI-2" value="Lampa na podczerwień" style="whiteSpace=wrap;html=1;aspect=fixed;" vertex="1" parent="WIyWlLk6GJQsqaUBKTNV-1">
          <mxGeometry x="180" y="200" width="100" height="100" as="geometry" />
        </mxCell>
        <mxCell id="XnbwVwA2hrqAzMLSGBaI-8" value="" style="edgeStyle=orthogonalEdgeStyle;rounded=0;orthogonalLoop=1;jettySize=auto;html=1;" edge="1" parent="WIyWlLk6GJQsqaUBKTNV-1" source="XnbwVwA2hrqAzMLSGBaI-5" target="XnbwVwA2hrqAzMLSGBaI-7">
          <mxGeometry relative="1" as="geometry" />
        </mxCell>
        <mxCell id="XnbwVwA2hrqAzMLSGBaI-5" value="Minikontroler" style="whiteSpace=wrap;html=1;aspect=fixed;" vertex="1" parent="WIyWlLk6GJQsqaUBKTNV-1">
          <mxGeometry x="540" y="200" width="100" height="100" as="geometry" />
        </mxCell>
        <mxCell id="XnbwVwA2hrqAzMLSGBaI-7" value="Czujnik ruchu" style="whiteSpace=wrap;html=1;aspect=fixed;" vertex="1" parent="WIyWlLk6GJQsqaUBKTNV-1">
          <mxGeometry x="540" y="20" width="100" height="100" as="geometry" />
        </mxCell>
        <mxCell id="XnbwVwA2hrqAzMLSGBaI-9" value="Panele słoneczne" style="whiteSpace=wrap;html=1;aspect=fixed;" vertex="1" parent="WIyWlLk6GJQsqaUBKTNV-1">
          <mxGeometry x="180" y="380" width="100" height="100" as="geometry" />
        </mxCell>
        <mxCell id="XnbwVwA2hrqAzMLSGBaI-12" value="" style="whiteSpace=wrap;html=1;aspect=fixed;" vertex="1" parent="WIyWlLk6GJQsqaUBKTNV-1">
          <mxGeometry x="190" y="40" width="80" height="80" as="geometry" />
        </mxCell>
      </root>
    </mxGraphModel>
  </diagram>
</mxfile>
